<svg id="Layer_1" data-name="Layer 1" xmlns="http://www.w3.org/2000/svg" viewBox="0 0 48 48"><defs><style>.cls-1{fill:#fff;}</style></defs><path class="cls-1" d="M20.82,14.65l4-2.59a.52.52,0,0,1,.8.43V35.63a.46.46,0,0,1-.71.39l-4-2.78A1.85,1.85,0,0,1,20,31.7V16.19A1.84,1.84,0,0,1,20.82,14.65Z"/><path class="cls-1" d="M6,25.55,2.09,23a.52.52,0,0,0-.8.43V35.63A.46.46,0,0,0,2,36l4-2.65a1.84,1.84,0,0,0,.83-1.54V27.08A1.83,1.83,0,0,0,6,25.55Z"/><path class="cls-1" d="M46.25,11.91,31.09,12a.42.42,0,0,0-.42.43v5.09H42.45A1.84,1.84,0,0,0,44,16.66l2.65-4A.46.46,0,0,0,46.25,11.91Z"/><path class="cls-1" d="M25.57,35.63a.45.45,0,0,1-.71.38L1.94,20.26a1.49,1.49,0,0,1-.64-1.4V14.61A.83.83,0,0,1,2.58,14l23,15.71Z"/><path class="cls-1" d="M25.57,35.63v-5.9L20,25.92v6.75l3.93,2.7.94.64,0,0,0,0h.36l0,0h0l.05,0h0l.05,0h0A.44.44,0,0,0,25.57,35.63Z"/><path class="cls-1" d="M36.25,12,31.1,12a.43.43,0,0,0-.43.43V35.63a.46.46,0,0,0,.71.39l4-2.78a1.85,1.85,0,0,0,.84-1.54Z"/><path class="cls-1" d="M43.42,24.2l-4.5-3.11a.46.46,0,0,0-.72.38v6.22a.46.46,0,0,0,.72.38L43.42,25A.46.46,0,0,0,43.42,24.2Z"/><path class="cls-1" d="M30.66,12.4v5.09h5.58V12h0l-5.15,0A.43.43,0,0,0,30.66,12.4Z"/></svg>