<svg width="644" height="101" viewBox="0 0 644 101" fill="none" xmlns="http://www.w3.org/2000/svg">
<path fill-rule="evenodd" clip-rule="evenodd" d="M147.056 40.7636C147.483 40.0226 146.949 39.0965 146.093 39.0965L124.511 39.0965C123.121 39.0965 121.837 39.8379 121.142 41.0414L110.715 59.1012C110.287 59.8421 110.822 60.7683 111.677 60.7683H133.26C134.65 60.7683 135.934 60.0269 136.629 58.8234L147.056 40.7636Z" fill="url(#paint0_linear_694_55)"/>
<path d="M158.714 20.7517C158.019 21.956 156.734 22.698 155.344 22.698H126.99L134.708 9.31725C137.685 4.15576 143.19 0.975586 149.149 0.975586H168.196C169.051 0.975586 169.586 1.90131 169.158 2.64222L158.714 20.7517Z" fill="url(#paint1_linear_694_55)"/>
<path d="M65.1504 86.1234L69.6683 78.4104L48.4083 42.1401C47.9776 41.4052 46.9143 41.4082 46.4876 42.1453L36.0252 60.2214C35.327 61.4276 35.3276 62.9151 36.0266 64.1209L49.1378 86.7363L49.9807 87.6719C54.259 92.4206 61.9198 91.6386 65.1504 86.1234Z" fill="url(#paint2_linear_694_55)"/>
<path fill-rule="evenodd" clip-rule="evenodd" d="M126.991 22.6984H127.04C126.971 22.7178 126.912 22.7632 126.875 22.8265L88.5053 89.1752C80.0499 103.796 58.9403 103.789 50.4953 89.1616L49.1387 86.7365L49.9816 87.6721C54.2599 92.4209 61.9207 91.6389 65.1513 86.1237L69.6521 78.4398C69.6585 78.4372 69.6629 78.435 69.6652 78.4338C69.6677 78.4324 69.6685 78.4319 69.6723 78.4283C69.6745 78.4261 69.7021 78.3997 69.7448 78.3259L108.115 11.9772C112.038 5.19361 119.28 1.01599 127.116 1.01599L147.992 1.016C142.485 1.39835 137.492 4.49208 134.709 9.31756L126.991 22.6984Z" fill="url(#paint3_linear_694_55)"/>
<path d="M56.8574 14.95L52.3396 22.663L73.5995 58.9333C74.0302 59.6681 75.0935 59.6652 75.5202 58.928L85.9826 40.852C86.6808 39.6458 86.6802 38.1582 85.9812 36.9525L72.8701 14.3371L72.0271 13.4015C67.7489 8.65272 60.088 9.43471 56.8574 14.95Z" fill="url(#paint4_linear_694_55)"/>
<path fill-rule="evenodd" clip-rule="evenodd" d="M71.5571 11.9008C63.1087 -2.73225 41.9877 -2.73223 33.5393 11.9008L0.150554 69.7317C-0.277214 70.4726 0.257496 71.3988 1.11303 71.3988H21.9667C23.3564 71.3988 24.6406 70.6574 25.3354 69.4539L52.3076 22.7367C52.3226 22.7108 52.3357 22.6907 52.3465 22.6754L52.3393 22.6631L56.8572 14.9501C60.0878 9.43487 67.7486 8.65288 72.0269 13.4016L72.8699 14.3373L71.5571 11.9008Z" fill="url(#paint5_linear_694_55)"/>
<path d="M205.333 71.379V31.7233H212.924L236.321 60.2754H232.639V31.7233H241.703V71.379H234.168L210.715 42.8269H214.397V71.379H205.333Z" fill="white"/>
<path d="M259.583 49.5684H278.618V56.933H259.583V49.5684ZM260.263 71.379H251.085V31.7233H281.054V39.0879H260.263V71.379Z" fill="white"/>
<path d="M313.649 50.4747H334.1V55.3467H313.649V50.4747ZM314.216 71.3789H308.551V31.7232H336.536V36.6518H314.216V71.3789Z" fill="white"/>
<path d="M348.93 46.3958C349.874 44.6585 351.271 43.3366 353.122 42.4302C354.973 41.5238 357.22 41.0706 359.863 41.0706V46.3391C359.561 46.3014 359.146 46.2825 358.617 46.2825C355.671 46.2825 353.349 47.17 351.649 48.9451C349.987 50.6824 349.156 53.175 349.156 56.423V71.3789H343.718V41.3538H348.93V46.3958Z" fill="white"/>
<path d="M394.615 41.3538V71.3789H389.403V66.6202C388.195 68.282 386.665 69.5472 384.815 70.4159C382.964 71.2845 380.925 71.7188 378.696 71.7188C375.788 71.7188 373.182 71.0768 370.879 69.7927C368.575 68.5086 366.762 66.7147 365.44 64.4109C364.156 62.0693 363.514 59.3878 363.514 56.3664C363.514 53.345 364.156 50.6824 365.44 48.3786C366.762 46.0748 368.575 44.2808 370.879 42.9967C373.182 41.7126 375.788 41.0706 378.696 41.0706C380.849 41.0706 382.832 41.486 384.645 42.3169C386.458 43.11 387.968 44.2997 389.177 45.8859V41.3538H394.615ZM379.15 66.9602C381.038 66.9602 382.756 66.5258 384.305 65.6572C385.853 64.7508 387.062 63.5044 387.93 61.9182C388.799 60.2942 389.233 58.4436 389.233 56.3664C389.233 54.2892 388.799 52.4575 387.93 50.8712C387.062 49.2472 385.853 48.0009 384.305 47.1323C382.756 46.2636 381.038 45.8293 379.15 45.8293C377.223 45.8293 375.486 46.2636 373.938 47.1323C372.427 48.0009 371.218 49.2472 370.312 50.8712C369.443 52.4575 369.009 54.2892 369.009 56.3664C369.009 58.4436 369.443 60.2942 370.312 61.9182C371.218 63.5044 372.427 64.7508 373.938 65.6572C375.486 66.5258 377.223 66.9602 379.15 66.9602Z" fill="white"/>
<path d="M442.465 41.0706C446.242 41.0706 449.226 42.1658 451.416 44.3564C453.644 46.5469 454.758 49.7949 454.758 54.1003V71.3789H449.32V54.7235C449.32 51.8154 448.64 49.6249 447.281 48.152C445.959 46.6791 444.051 45.9426 441.559 45.9426C438.802 45.9426 436.611 46.8112 434.987 48.5485C433.363 50.2481 432.551 52.703 432.551 55.9132V71.3789H427.113V54.7235C427.113 51.8154 426.433 49.6249 425.073 48.152C423.751 46.6791 421.844 45.9426 419.352 45.9426C416.594 45.9426 414.404 46.8112 412.78 48.5485C411.156 50.2481 410.344 52.703 410.344 55.9132V71.3789H404.905V41.3538H410.117V45.8293C411.213 44.2808 412.648 43.11 414.423 42.3169C416.198 41.486 418.218 41.0706 420.485 41.0706C422.826 41.0706 424.903 41.5427 426.716 42.4869C428.529 43.4311 429.926 44.8096 430.908 46.6224C432.041 44.8851 433.609 43.5255 435.61 42.5435C437.65 41.5616 439.935 41.0706 442.465 41.0706Z" fill="white"/>
<path d="M478.471 66.9602C482.059 66.9602 484.948 65.7516 487.139 63.3345L490.084 66.8468C488.763 68.4331 487.082 69.6416 485.042 70.4725C483.041 71.3034 480.794 71.7188 478.301 71.7188C475.128 71.7188 472.315 71.0768 469.86 69.7927C467.405 68.4708 465.498 66.6391 464.138 64.2975C462.816 61.956 462.155 59.3123 462.155 56.3664C462.155 53.4583 462.797 50.8335 464.082 48.4919C465.403 46.1503 467.197 44.3375 469.463 43.0534C471.767 41.7315 474.354 41.0706 477.225 41.0706C479.944 41.0706 482.418 41.6938 484.646 42.9401C486.874 44.1486 488.649 45.8671 489.971 48.0953C491.293 50.3236 491.973 52.8918 492.011 55.7999L468.16 60.4453C468.916 62.5225 470.181 64.1276 471.956 65.2606C473.769 66.3936 475.941 66.9602 478.471 66.9602ZM477.225 45.6593C475.336 45.6593 473.637 46.0937 472.126 46.9623C470.653 47.831 469.501 49.0584 468.67 50.6446C467.839 52.1931 467.424 54.0059 467.424 56.0831V56.6496L486.629 53.024C486.138 50.8335 485.042 49.0584 483.343 47.6988C481.643 46.3391 479.604 45.6593 477.225 45.6593Z" fill="white"/>
<path d="M545.393 41.3538V57.9526C545.393 62.3714 544.298 65.7705 542.107 68.1498C539.917 70.5292 536.744 71.7188 532.59 71.7188C527.68 71.7188 524.281 69.9249 522.393 66.337C521.411 68.1498 520.07 69.5095 518.371 70.4159C516.709 71.2845 514.632 71.7188 512.139 71.7188C507.947 71.7188 504.755 70.5292 502.565 68.1498C500.412 65.7705 499.336 62.3714 499.336 57.9526V41.3538H504.774V57.4428C504.774 60.653 505.36 63.0323 506.53 64.5808C507.701 66.0915 509.571 66.8468 512.139 66.8468C514.707 66.8468 516.595 66.0726 517.804 64.5242C519.05 62.9757 519.674 60.6152 519.674 57.4428V41.3538H525.112V57.4428C525.112 60.6152 525.716 62.9757 526.925 64.5242C528.171 66.0726 530.078 66.8468 532.647 66.8468C535.177 66.8468 537.028 66.0915 538.198 64.5808C539.369 63.0323 539.955 60.653 539.955 57.4428V41.3538H545.393Z" fill="white"/>
<path d="M568.3 71.7188C565.316 71.7188 562.635 71.0579 560.256 69.7361C557.876 68.4142 556.007 66.6014 554.647 64.2975C553.325 61.956 552.664 59.3123 552.664 56.3664C552.664 53.4205 553.325 50.7957 554.647 48.4919C556.007 46.1503 557.876 44.3375 560.256 43.0534C562.635 41.7315 565.316 41.0706 568.3 41.0706C571.284 41.0706 573.946 41.7315 576.288 43.0534C578.667 44.3375 580.518 46.1503 581.84 48.4919C583.199 50.7957 583.879 53.4205 583.879 56.3664C583.879 59.3123 583.199 61.956 581.84 64.2975C580.518 66.6014 578.667 68.4142 576.288 69.7361C573.946 71.0579 571.284 71.7188 568.3 71.7188ZM568.3 66.9602C570.226 66.9602 571.945 66.5258 573.455 65.6572C575.004 64.7508 576.212 63.5044 577.081 61.9182C577.95 60.2942 578.384 58.4436 578.384 56.3664C578.384 54.2892 577.95 52.4575 577.081 50.8712C576.212 49.2472 575.004 48.0009 573.455 47.1323C571.945 46.2636 570.226 45.8293 568.3 45.8293C566.374 45.8293 564.637 46.2636 563.088 47.1323C561.578 48.0009 560.369 49.2472 559.463 50.8712C558.594 52.4575 558.16 54.2892 558.16 56.3664C558.16 58.4436 558.594 60.2942 559.463 61.9182C560.369 63.5044 561.578 64.7508 563.088 65.6572C564.637 66.5258 566.374 66.9602 568.3 66.9602Z" fill="white"/>
<path d="M596.612 46.3958C597.557 44.6585 598.954 43.3366 600.805 42.4302C602.655 41.5238 604.902 41.0706 607.546 41.0706V46.3391C607.244 46.3014 606.828 46.2825 606.3 46.2825C603.354 46.2825 601.031 47.17 599.332 48.9451C597.67 50.6824 596.839 53.175 596.839 56.423V71.3789H591.4V41.3538H596.612V46.3958Z" fill="white"/>
<path d="M625.919 57.3861L619.688 63.1645V71.3789H614.249V29.3438H619.688V56.3097L636.06 41.3538H642.631L629.998 53.7604L643.878 71.3789H637.193L625.919 57.3861Z" fill="white"/>
<defs>
<linearGradient id="paint0_linear_694_55" x1="115.402" y1="49.9324" x2="141.741" y2="49.9324" gradientUnits="userSpaceOnUse">
<stop stop-color="#5D75CA"/>
<stop offset="1" stop-color="#37BBFF"/>
</linearGradient>
<linearGradient id="paint1_linear_694_55" x1="163.113" y1="13.2725" x2="132.606" y2="13.2725" gradientUnits="userSpaceOnUse">
<stop stop-color="#37BBFF"/>
<stop offset="1" stop-color="#5D75CA"/>
</linearGradient>
<linearGradient id="paint2_linear_694_55" x1="48.164" y1="41.9501" x2="48.164" y2="98.685" gradientUnits="userSpaceOnUse">
<stop stop-color="#37BBFF"/>
<stop offset="1" stop-color="#3551B6"/>
</linearGradient>
<linearGradient id="paint3_linear_694_55" x1="98.5655" y1="1.01599" x2="98.5655" y2="100.136" gradientUnits="userSpaceOnUse">
<stop stop-color="#67A8E3"/>
<stop offset="1" stop-color="#4376E0"/>
</linearGradient>
<linearGradient id="paint4_linear_694_55" x1="74.4205" y1="60.5794" x2="74.4205" y2="11.7079" gradientUnits="userSpaceOnUse">
<stop offset="0.0001" stop-color="#37BBFF"/>
<stop offset="1" stop-color="#5D75CA"/>
</linearGradient>
<linearGradient id="paint5_linear_694_55" x1="36.0291" y1="0.926025" x2="36.0291" y2="71.3988" gradientUnits="userSpaceOnUse">
<stop stop-color="#66A7E3"/>
<stop offset="1" stop-color="#4377E0"/>
</linearGradient>
</defs>
</svg>
