<?xml version="1.0" standalone="no"?>
<!DOCTYPE svg PUBLIC "-//W3C//DTD SVG 20010904//EN"
 "http://www.w3.org/TR/2001/REC-SVG-20010904/DTD/svg10.dtd">
<svg version="1.0" xmlns="http://www.w3.org/2000/svg"
 width="513.000000pt" height="513.000000pt" viewBox="0 0 513.000000 513.000000"
 preserveAspectRatio="xMidYMid meet">
<metadata>
Created by potrace 1.14, written by Peter Selinger 2001-2017
</metadata>
<g transform="translate(0.000000,513.000000) scale(0.100000,-0.100000)"
fill="#000000" stroke="none">
<path d="M1446 4054 c-193 -43 -338 -155 -450 -348 -68 -116 -336 -581 -541
-936 -87 -151 -198 -343 -246 -426 -48 -83 -97 -169 -109 -190 -12 -21 -40
-69 -62 -106 -28 -47 -38 -73 -33 -88 7 -21 9 -21 361 -18 338 3 354 4 373 23
11 11 66 101 124 200 88 152 330 571 387 670 216 377 324 561 329 567 6 8 141
-213 141 -232 0 -5 4 -10 9 -10 5 0 11 -8 14 -17 4 -10 17 -36 30 -58 33 -56
175 -297 260 -440 224 -382 223 -381 267 -303 13 24 89 155 169 293 166 286
166 286 107 386 -20 33 -36 62 -36 64 0 3 -24 44 -53 92 -29 48 -80 135 -112
192 -33 56 -73 126 -90 155 -16 29 -47 83 -69 122 -106 190 -187 279 -321 351
-118 63 -313 88 -449 57z"/>
<path d="M3713 4053 c-128 -26 -249 -91 -340 -185 -64 -65 -76 -82 -178 -260
-5 -10 -48 -84 -95 -165 -47 -80 -94 -162 -105 -182 -11 -20 -32 -56 -47 -81
-14 -25 -207 -358 -428 -740 -221 -382 -405 -698 -409 -702 -3 -4 -90 135
-192 310 -509 868 -462 792 -487 792 -21 0 -351 -567 -357 -613 -3 -20 5 -48
24 -81 52 -95 433 -751 459 -791 71 -109 214 -214 347 -255 91 -28 244 -35
340 -14 134 28 271 110 360 215 32 37 271 438 383 640 11 20 39 67 61 104 23
37 41 68 41 70 0 1 46 80 101 176 56 96 114 197 129 224 16 28 71 124 124 214
53 90 96 164 96 166 0 2 18 33 40 69 22 36 40 70 40 76 0 5 5 10 10 10 6 0 10
4 10 9 0 11 178 321 194 339 10 10 108 13 453 13 498 1 477 -2 525 80 14 24
89 156 168 293 114 197 141 252 133 265 -9 15 -71 16 -674 17 -495 0 -680 -3
-726 -13z"/>
<path d="M3734 2912 c-12 -2 -33 -15 -47 -30 -27 -29 -342 -570 -342 -587 1
-34 13 -35 359 -35 208 0 355 4 372 10 28 10 78 79 134 184 16 29 145 253 189
327 46 77 55 101 44 118 -9 14 -47 16 -349 16 -186 0 -349 -1 -360 -3z"/>
</g>
</svg>
